<?xml version="1.0"?>
<svg xmlns="http://www.w3.org/2000/svg" height="512px" viewBox="0 0 512.00002 512.00002" width="512px"><path d="m508.410156 189.015625-57.757812-35.921875v-145.488281c0-4.199219-3.40625-7.605469-7.605469-7.605469h-374.09375c-4.199219 0-7.605469 3.40625-7.605469 7.605469v56.683593c0 4.199219 3.40625 7.605469 7.605469 7.605469s7.605469-3.40625 7.605469-7.605469v-49.082031h358.882812v214.1875l-58.28125 36.246094c-3.566406 2.21875-4.660156 6.90625-2.441406 10.472656 1.441406 2.316407 3.925781 3.589844 6.464844 3.589844 1.371094 0 2.757812-.371094 4.007812-1.148437l111.601563-69.398438v287.636719h-481.585938v-287.636719l412.953125 256.785156c1.25.777344 2.636719 1.148438 4.007813 1.148438 2.542969 0 5.023437-1.273438 6.464843-3.589844 2.21875-3.566406 1.125-8.257812-2.441406-10.472656l-165.792968-103.09375 90.007812-55.96875c3.566406-2.21875 4.660156-6.90625 2.445312-10.472656-2.21875-3.566407-6.90625-4.65625-10.476562-2.441407l-96.375 59.929688-179.441406-111.585938v-134.6875c0-4.199219-3.40625-7.605469-7.605469-7.605469s-7.605469 3.40625-7.605469 7.605469v58.390625l-57.757812 35.917969c-2.230469 1.386719-3.589844 3.828125-3.589844 6.457031v308.921875c0 4.199219 3.40625 7.605469 7.605469 7.605469h496.789062c4.203125 0 7.605469-3.40625 7.605469-7.605469v-308.921875c0-2.628906-1.355469-5.070312-3.589844-6.457031zm-447.0625 30.921875-39.34375-24.464844 39.34375-24.46875zm389.304688-48.933594 39.34375 24.46875-39.34375 24.46875zm0 0" fill="#7c7c7c"/><path d="m129.78125 76.453125h252.4375c4.203125 0 7.605469-3.402344 7.605469-7.601563 0-4.199218-3.402344-7.605468-7.605469-7.605468h-252.4375c-4.199219 0-7.605469 3.40625-7.605469 7.605468 0 4.199219 3.40625 7.601563 7.605469 7.601563zm0 0" fill="#7c7c7c"/><path d="m129.78125 134.242188h252.4375c4.203125 0 7.605469-3.40625 7.605469-7.605469s-3.402344-7.601563-7.605469-7.601563h-252.4375c-4.199219 0-7.605469 3.402344-7.605469 7.601563s3.40625 7.605469 7.605469 7.605469zm0 0" fill="#7c7c7c"/><path d="m129.78125 192.027344h252.4375c4.203125 0 7.605469-3.402344 7.605469-7.601563s-3.402344-7.605469-7.605469-7.605469h-252.4375c-4.199219 0-7.605469 3.40625-7.605469 7.605469s3.40625 7.601563 7.605469 7.601563zm0 0" fill="#7c7c7c"/><path d="m129.78125 249.816406h252.4375c4.203125 0 7.605469-3.40625 7.605469-7.605468 0-4.199219-3.402344-7.601563-7.605469-7.601563h-252.4375c-4.199219 0-7.605469 3.402344-7.605469 7.601563 0 4.199218 3.40625 7.605468 7.605469 7.605468zm0 0" fill="#7c7c7c"/></svg>
