<?xml version="1.0"?>
<svg xmlns="http://www.w3.org/2000/svg" height="512px" viewBox="-55 1 511 511.99901" width="512px"><path d="m200.742188 28.246094c-17.554688 0-31.835938 14.28125-31.835938 31.835937 0 17.558594 14.28125 31.84375 31.835938 31.84375 17.558593 0 31.84375-14.285156 31.84375-31.84375 0-17.554687-14.285157-31.835937-31.84375-31.835937zm0 15.207031c6.429687 0 12.011718 3.671875 14.777343 9.023437h-29.546875c2.765625-5.351562 8.339844-9.023437 14.769532-9.023437zm0 33.265625c-6.429688 0-12.007813-3.679688-14.773438-9.035156h29.554688c-2.769532 5.355468-8.347657 9.035156-14.78125 9.035156zm0 0" fill="#7c7c7c"/><path d="m393.371094 203.046875c4.199218 0 7.605468-3.40625 7.605468-7.605469v-96.660156c0-25.535156-20.773437-46.304688-46.304687-46.304688h-43.375c-2.15625-10.679687-11.617187-18.746093-22.921875-18.746093h-33.640625c-9.984375-20.375-31.050781-33.730469-53.992187-33.730469-22.9375 0-44.003907 13.355469-53.988282 33.730469h-33.640625c-11.308593 0-20.765625 8.066406-22.921875 18.746093h-43.390625c-25.53125 0-46.300781 20.769532-46.300781 46.300782v366.917968c0 25.53125 20.769531 46.304688 46.300781 46.304688h307.871094c25.53125 0 46.304687-20.773438 46.304687-46.304688v-239.835937c0-4.199219-3.40625-7.605469-7.605468-7.605469-4.199219 0-7.601563 3.40625-7.601563 7.605469v239.835937c0 17.148438-13.949219 31.097657-31.097656 31.097657h-307.871094c-17.144531 0-31.09375-13.949219-31.09375-31.097657v-366.914062c0-17.148438 13.949219-31.097656 31.09375-31.097656h42.925781v32.960937h-28.898437c-4.199219 0-7.605469 3.40625-7.605469 7.605469v334.574219c0 4.199219 3.40625 7.605469 7.605469 7.605469h25.242187c4.199219 0 7.601563-3.40625 7.601563-7.605469s-3.402344-7.601563-7.601563-7.601563h-17.636718v-319.367187h21.292968v22.8125c0 4.199219 3.402344 7.601562 7.601563 7.601562h206.828125c4.199219 0 7.605469-3.402343 7.605469-7.601562v-22.8125h21.289062v319.367187h-216.566406c-4.199219 0-7.601563 3.402344-7.601563 7.601563s3.402344 7.605469 7.601563 7.605469h224.171875c4.199219 0 7.601562-3.40625 7.601562-7.605469v-334.574219c0-4.199219-3.402343-7.605469-7.601562-7.605469h-28.894531v-32.960937h42.910156c17.148437 0 31.097656 13.949218 31.097656 31.09375v96.664062c0 4.199219 3.402344 7.605469 7.601563 7.605469zm-288.4375-71.984375v-73.945312c0-4.511719 3.667968-8.179688 8.179687-8.179688h38.613281c3.152344 0 5.976563-1.941406 7.101563-4.886719 6.605469-17.25 23.449219-28.84375 41.914063-28.84375 18.46875 0 35.3125 11.59375 41.917968 28.84375 1.125 2.945313 3.949219 4.886719 7.101563 4.886719h38.613281c4.507812 0 8.179688 3.667969 8.179688 8.179688v73.945312zm0 0" fill="#7c7c7c"/><path d="m102.394531 211.15625h196.691407c4.199218 0 7.601562-3.40625 7.601562-7.605469s-3.402344-7.601562-7.601562-7.601562h-196.691407c-4.199219 0-7.605469 3.402343-7.605469 7.601562s3.40625 7.605469 7.605469 7.605469zm0 0" fill="#7c7c7c"/><path d="m102.394531 269.960938h196.691407c4.199218 0 7.601562-3.40625 7.601562-7.605469s-3.402344-7.601563-7.601562-7.601563h-196.691407c-4.199219 0-7.605469 3.402344-7.605469 7.601563s3.40625 7.605469 7.605469 7.605469zm0 0" fill="#7c7c7c"/><path d="m102.394531 328.765625h196.691407c4.199218 0 7.601562-3.40625 7.601562-7.605469 0-4.199218-3.402344-7.605468-7.601562-7.605468h-196.691407c-4.199219 0-7.605469 3.40625-7.605469 7.605468 0 4.199219 3.40625 7.605469 7.605469 7.605469zm0 0" fill="#7c7c7c"/><path d="m102.394531 387.570312h196.691407c4.199218 0 7.601562-3.40625 7.601562-7.605468 0-4.199219-3.402344-7.605469-7.601562-7.605469h-196.691407c-4.199219 0-7.605469 3.40625-7.605469 7.605469 0 4.199218 3.40625 7.605468 7.605469 7.605468zm0 0" fill="#7c7c7c"/></svg>
